<svg width="14" height="14" viewBox="0 0 14 14" fill="none" xmlns="http://www.w3.org/2000/svg">
  <path d="M6.18333 8.05L4.92917 6.79583C4.82222 6.68889 4.68611 6.63542 4.52083 6.63542C4.35556 6.63542 4.21944 6.68889 4.1125 6.79583C4.00556 6.90278 3.95208 7.03889 3.95208 7.20417C3.95208 7.36944 4.00556 7.50556 4.1125 7.6125L5.775 9.275C5.89167 9.39167 6.02778 9.45 6.18333 9.45C6.33889 9.45 6.475 9.39167 6.59167 9.275L9.8875 5.97917C9.99444 5.87222 10.0479 5.73611 10.0479 5.57083C10.0479 5.40556 9.99444 5.26944 9.8875 5.1625C9.78056 5.05556 9.64444 5.00208 9.47917 5.00208C9.31389 5.00208 9.17778 5.05556 9.07083 5.1625L6.18333 8.05ZM7 12.8333C6.19306 12.8333 5.43472 12.6802 4.725 12.374C4.01528 12.0677 3.39792 11.6521 2.87292 11.1271C2.34792 10.6021 1.93229 9.98472 1.62604 9.275C1.31979 8.56528 1.16667 7.80694 1.16667 7C1.16667 6.19306 1.31979 5.43472 1.62604 4.725C1.93229 4.01528 2.34792 3.39792 2.87292 2.87292C3.39792 2.34792 4.01528 1.93229 4.725 1.62604C5.43472 1.31979 6.19306 1.16667 7 1.16667C7.80694 1.16667 8.56528 1.31979 9.275 1.62604C9.98472 1.93229 10.6021 2.34792 11.1271 2.87292C11.6521 3.39792 12.0677 4.01528 12.374 4.725C12.6802 5.43472 12.8333 6.19306 12.8333 7C12.8333 7.80694 12.6802 8.56528 12.374 9.275C12.0677 9.98472 11.6521 10.6021 11.1271 11.1271C10.6021 11.6521 9.98472 12.0677 9.275 12.374C8.56528 12.6802 7.80694 12.8333 7 12.8333Z" fill="#04A08B"/>
</svg>
