<svg preserveAspectRatio="none" overflow="visible" style="display: block;" width="19.639" height="22" viewBox="0 0 19.639 22" fill="none" xmlns="http://www.w3.org/2000/svg">
<g id="Symbol - Original">
<path id="Vector" d="M12.2851 10.0884L13.9074 7.34537L18.2622 14.1336V6.47015C18.256 6.3617 18.2249 6.25613 18.1712 6.1617C18.1175 6.06727 18.0427 5.98653 17.9526 5.92581L10.0971 1.40031C10.0047 1.35258 9.90219 1.32767 9.7982 1.32767C9.69421 1.32767 9.59174 1.35258 9.49935 1.40031H9.42464L1.78252 5.89379L1.66511 5.95783C1.52661 6.06241 1.43159 6.21444 1.39827 6.38476C1.39827 6.38476 1.39827 6.43813 1.39827 6.47015V13.7814L5.46482 7.49479C5.78175 7.10707 6.19166 6.80587 6.65635 6.61925C7.12105 6.43262 7.62542 6.36664 8.12249 6.42746H9.32858L2.15608 17.9013L2.99928 18.3816L10.2251 6.4488H13.4271L6.21196 18.6698L9.22184 20.3989L9.57406 20.6123C9.73243 20.6712 9.90667 20.6712 10.065 20.6123L18.0167 16.0015L16.5011 16.8767L12.2851 10.0884ZM12.9041 18.9686L9.87292 14.2083L11.7194 11.0597L15.7112 17.3463L12.9041 18.9686Z" fill="#2F3749"/>
<path id="Vector_2" d="M9.87386 14.2083L12.9051 18.9686L15.7122 17.3463L11.7204 11.0597L9.87386 14.2083Z" fill="#4F9EE9"/>
<path id="Vector_3" d="M18.2617 15.4358V14.1336L13.9069 7.34537L12.2846 10.0884L16.5006 16.8873L18.0162 16.0121C18.0904 15.9531 18.1508 15.8786 18.1932 15.7938C18.2356 15.709 18.259 15.6159 18.2617 15.5212V15.4358Z" fill="#4F9EE9"/>
<path id="Vector_4" d="M0 16.6632L2.13467 17.9013L9.27514 6.43813H8.06905C7.57199 6.37732 7.06762 6.4433 6.60292 6.62992C6.13822 6.81655 5.72832 7.11775 5.41139 7.50547L1.36619 13.7814L0 15.9161V16.6952V16.6632Z" fill="white"/>
<path id="Vector_5" d="M13.4276 6.43814L10.2256 6.44881L2.99976 18.3816L5.51867 19.8439L6.21243 18.6698L13.4276 6.43814Z" fill="white"/>
<path id="Vector_6" d="M19.6176 6.41679C19.5999 6.08758 19.5034 5.76745 19.3362 5.48329C19.169 5.19912 18.9361 4.95923 18.657 4.78376L10.7054 0.204896C10.4201 0.0699781 10.1084 0 9.7928 0C9.4772 0 9.16553 0.0699781 8.88023 0.204896L1.15272 4.6877C1.04719 4.73787 0.947058 4.79867 0.853868 4.86915C0.603401 5.04538 0.396347 5.27632 0.248403 5.54447C0.10046 5.81262 0.015512 6.11093 0 6.41679V15.8841L1.36619 13.7494V6.48083C1.36619 6.48083 1.36619 6.48083 1.36619 6.39544C1.39951 6.22512 1.49452 6.07309 1.63302 5.96851L9.49928 1.40031C9.59167 1.35258 9.69415 1.32767 9.79814 1.32767C9.90213 1.32767 10.0046 1.35258 10.097 1.40031L17.9419 5.90447C18.032 5.96519 18.1068 6.04592 18.1605 6.14035C18.2142 6.23478 18.2453 6.34035 18.2514 6.44881V15.4998C18.2487 15.5935 18.2264 15.6856 18.1859 15.7701C18.1455 15.8547 18.0878 15.9298 18.0166 15.9908L16.501 16.866L15.7112 17.325L12.9041 18.9686L10.065 20.6123C9.90661 20.6712 9.73236 20.6712 9.574 20.6123L6.21189 18.6698L5.53947 19.8439L8.5707 21.5836L8.82686 21.733L9.051 21.8505C9.54392 22.0499 10.095 22.0499 10.588 21.8505L18.8598 17.0688C19.0921 16.8857 19.2821 16.6545 19.4166 16.391C19.5511 16.1275 19.627 15.8381 19.639 15.5425L19.6176 6.41679Z" fill="#9DBCD8"/>
</g>
</svg>
