<svg preserveAspectRatio="none" overflow="visible" style="display: block;" width="18" height="18" viewBox="0 0 18 18" fill="none" xmlns="http://www.w3.org/2000/svg">
<g id="Asset / USDT">
<circle id="Ellipse 60" cx="9" cy="9" r="9" fill="#49BFF5"/>
<rect id="Rectangle 34624571" x="2.25" y="3.75" width="1.5" height="1.5" fill="#009DF1"/>
<rect id="Rectangle 34624576" x="5.25" y="5.25" width="1.5" height="1.5" fill="#009DF1"/>
<rect id="Rectangle 34624581" x="8.25" y="6.75" width="1.5" height="1.5" fill="#009DF1"/>
<rect id="Rectangle 34624586" x="11.25" y="8.25" width="1.5" height="1.5" fill="#009DF1"/>
<rect id="Rectangle 34624572" x="3.75" y="3.75" width="1.5" height="1.5" fill="#009DF1"/>
<rect id="Rectangle 34624577" x="6.75" y="5.25" width="1.5" height="1.5" fill="#009DF1"/>
<rect id="Rectangle 34624582" x="9.75" y="6.75" width="1.5" height="1.5" fill="#009DF1"/>
<rect id="Rectangle 34624587" x="12.75" y="8.25" width="1.5" height="1.5" fill="#009DF1"/>
<rect id="Rectangle 34624573" x="5.25" y="3.75" width="1.5" height="1.5" fill="#009DF1"/>
<rect id="Rectangle 34624578" x="8.25" y="5.25" width="1.5" height="1.5" fill="#009DF1"/>
<rect id="Rectangle 34624583" x="11.25" y="6.75" width="1.5" height="1.5" fill="#009DF1"/>
<rect id="Rectangle 34624588" x="14.25" y="8.25" width="1.5" height="1.5" fill="#009DF1"/>
<rect id="Rectangle 34624574" x="6.75" y="3.75" width="1.5" height="1.5" fill="#009DF1"/>
<rect id="Rectangle 34624610" x="6.75" y="2.25" width="1.5" height="1.5" fill="#009DF1"/>
<rect id="Rectangle 34624612" x="6.75" y="0.75" width="1.5" height="1.5" fill="#009DF1"/>
<rect id="Rectangle 34624579" x="9.75" y="5.25" width="1.5" height="1.5" fill="#009DF1"/>
<rect id="Rectangle 34624584" x="12.75" y="6.75" width="1.5" height="1.5" fill="#009DF1"/>
<rect id="Rectangle 34624589" x="15.75" y="8.25" width="1.5" height="1.5" fill="#009DF1"/>
<rect id="Rectangle 34624575" x="8.25" y="3.75" width="1.5" height="1.5" fill="#009DF1"/>
<rect id="Rectangle 34624611" x="8.25" y="2.25" width="1.5" height="1.5" fill="#009DF1"/>
<rect id="Rectangle 34624613" x="8.25" y="0.75" width="1.5" height="1.5" fill="#009DF1"/>
<rect id="Rectangle 34624580" x="11.25" y="5.25" width="1.5" height="1.5" fill="#009DF1"/>
<rect id="Rectangle 34624585" x="14.25" y="6.75" width="1.5" height="1.5" fill="#009DF1"/>
<rect id="Rectangle 34624590" x="10.5" y="9.75" width="1.5" height="1.5" fill="#009DF1"/>
<rect id="Rectangle 34624591" x="9" y="9.75" width="1.5" height="1.5" fill="#009DF1"/>
<rect id="Rectangle 34624596" x="13.5" y="11.25" width="1.5" height="1.5" fill="#009DF1"/>
<rect id="Rectangle 34624601" x="9" y="12.75" width="1.5" height="1.5" fill="#009DF1"/>
<rect id="Rectangle 34624606" x="9" y="14.25" width="1.5" height="1.5" fill="#009DF1"/>
<rect id="Rectangle 34624608" x="10.5" y="15.75" width="1.5" height="1.5" fill="#009DF1"/>
<rect id="Rectangle 34624592" x="7.5" y="9.75" width="1.5" height="1.5" fill="#009DF1"/>
<rect id="Rectangle 34624597" x="12" y="11.25" width="1.5" height="1.5" fill="#009DF1"/>
<rect id="Rectangle 34624602" x="7.5" y="12.75" width="1.5" height="1.5" fill="#009DF1"/>
<rect id="Rectangle 34624607" x="7.5" y="14.25" width="1.5" height="1.5" fill="#009DF1"/>
<rect id="Rectangle 34624609" x="9" y="15.75" width="1.5" height="1.5" fill="#009DF1"/>
<rect id="Rectangle 34624593" x="6" y="9.75" width="1.5" height="1.5" fill="#009DF1"/>
<rect id="Rectangle 34624598" x="10.5" y="11.25" width="1.5" height="1.5" fill="#009DF1"/>
<rect id="Rectangle 34624603" x="6" y="12.75" width="1.5" height="1.5" fill="#009DF1"/>
<rect id="Rectangle 34624594" x="4.5" y="9.75" width="1.5" height="1.5" fill="#009DF1"/>
<rect id="Rectangle 34624599" x="9" y="11.25" width="1.5" height="1.5" fill="#009DF1"/>
<rect id="Rectangle 34624604" x="4.5" y="12.75" width="1.5" height="1.5" fill="#009DF1"/>
<rect id="Rectangle 34624595" x="3" y="9.75" width="1.5" height="1.5" fill="#009DF1"/>
<rect id="Rectangle 34624600" x="7.5" y="11.25" width="1.5" height="1.5" fill="#009DF1"/>
<rect id="Rectangle 34624605" x="3" y="12.75" width="1.5" height="1.5" fill="#009DF1"/>
</g>
</svg>
