<svg preserveAspectRatio="none" overflow="visible" style="display: block;" width="20" height="20" viewBox="0 0 20 20" fill="none" xmlns="http://www.w3.org/2000/svg">
<g id="Frame">
<path id="Vector" d="M2.52083 17.4792C1.95139 16.9097 1.66667 16.2222 1.66667 15.4167C1.66667 14.6111 1.95139 13.9236 2.52083 13.3542C3.09028 12.7847 3.77778 12.5 4.58333 12.5C4.83333 12.5 5.07639 12.5312 5.3125 12.5937C5.54861 12.6562 5.77083 12.7431 5.97917 12.8542L9.16667 9.66667V7.375C8.55556 7.19444 8.05556 6.85069 7.66667 6.34375C7.27778 5.83681 7.08333 5.25 7.08333 4.58333C7.08333 3.77778 7.36806 3.09028 7.9375 2.52083C8.50694 1.95139 9.19444 1.66667 10 1.66667C10.8056 1.66667 11.4931 1.95139 12.0625 2.52083C12.6319 3.09028 12.9167 3.77778 12.9167 4.58333C12.9167 5.25 12.7222 5.83681 12.3333 6.34375C11.9444 6.85069 11.4444 7.19444 10.8333 7.375V9.66667L14.0417 12.8542C14.25 12.7431 14.4687 12.6562 14.6979 12.5937C14.9271 12.5312 15.1667 12.5 15.4167 12.5C16.2222 12.5 16.9097 12.7847 17.4792 13.3542C18.0486 13.9236 18.3333 14.6111 18.3333 15.4167C18.3333 16.2222 18.0486 16.9097 17.4792 17.4792C16.9097 18.0486 16.2222 18.3333 15.4167 18.3333C14.6111 18.3333 13.9236 18.0486 13.3542 17.4792C12.7847 16.9097 12.5 16.2222 12.5 15.4167C12.5 15.1667 12.5312 14.9236 12.5937 14.6875C12.6562 14.4514 12.7431 14.2292 12.8542 14.0208L10 11.1667L7.14583 14.0208C7.25694 14.2292 7.34375 14.4514 7.40625 14.6875C7.46875 14.9236 7.5 15.1667 7.5 15.4167C7.5 16.2222 7.21528 16.9097 6.64583 17.4792C6.07639 18.0486 5.38889 18.3333 4.58333 18.3333C3.77778 18.3333 3.09028 18.0486 2.52083 17.4792ZM16.3021 16.3021C16.5451 16.059 16.6667 15.7639 16.6667 15.4167C16.6667 15.0694 16.5451 14.7743 16.3021 14.5312C16.059 14.2882 15.7639 14.1667 15.4167 14.1667C15.0694 14.1667 14.7743 14.2882 14.5312 14.5312C14.2882 14.7743 14.1667 15.0694 14.1667 15.4167C14.1667 15.7639 14.2882 16.059 14.5312 16.3021C14.7743 16.5451 15.0694 16.6667 15.4167 16.6667C15.7639 16.6667 16.059 16.5451 16.3021 16.3021ZM10.8854 5.46875C11.1285 5.22569 11.25 4.93056 11.25 4.58333C11.25 4.23611 11.1285 3.94097 10.8854 3.69792C10.6424 3.45486 10.3472 3.33333 10 3.33333C9.65278 3.33333 9.35764 3.45486 9.11458 3.69792C8.87153 3.94097 8.75 4.23611 8.75 4.58333C8.75 4.93056 8.87153 5.22569 9.11458 5.46875C9.35764 5.71181 9.65278 5.83333 10 5.83333C10.3472 5.83333 10.6424 5.71181 10.8854 5.46875ZM5.46875 16.3021C5.71181 16.059 5.83333 15.7639 5.83333 15.4167C5.83333 15.0694 5.71181 14.7743 5.46875 14.5312C5.22569 14.2882 4.93056 14.1667 4.58333 14.1667C4.23611 14.1667 3.94097 14.2882 3.69792 14.5312C3.45486 14.7743 3.33333 15.0694 3.33333 15.4167C3.33333 15.7639 3.45486 16.059 3.69792 16.3021C3.94097 16.5451 4.23611 16.6667 4.58333 16.6667C4.93056 16.6667 5.22569 16.5451 5.46875 16.3021Z" fill="#1D1D24"/>
</g>
</svg>
